<svg width="1400" height="980" viewBox="0 0 1400 980" fill="none" xmlns="http://www.w3.org/2000/svg">
  <rect width="1400" height="980" rx="64" fill="#F2EEE3"/>
  <rect x="92" y="104" width="1216" height="772" rx="44" fill="#FFFFFF"/>
  <rect x="138" y="150" width="440" height="680" rx="32" fill="#0E140C"/>
  <circle cx="994" cy="216" r="96" fill="#DCEB56"/>
  <rect x="624" y="150" width="230" height="300" rx="28" fill="#EDE8DB"/>
  <rect x="878" y="150" width="384" height="300" rx="28" fill="#172016"/>
  <rect x="624" y="476" width="638" height="354" rx="32" fill="#F3F0E6"/>
  <rect x="676" y="530" width="198" height="246" rx="24" fill="#DCEB56"/>
  <rect x="900" y="530" width="310" height="246" rx="24" fill="#FFFFFF"/>
  <circle cx="306" cy="362" r="122" fill="#253123"/>
  <circle cx="306" cy="330" r="56" fill="#E8C8A9"/>
  <path d="M190 594C212 478 258 432 326 432C394 432 438 478 456 594" fill="#DCEB56"/>
  <path d="M238 720C276 642 324 608 390 608C450 608 500 646 526 720" stroke="#DCEB56" stroke-width="18" stroke-linecap="round"/>
  <rect x="664" y="202" width="154" height="18" rx="9" fill="#D4CEBE"/>
  <rect x="664" y="236" width="130" height="18" rx="9" fill="#D4CEBE"/>
  <rect x="664" y="270" width="90" height="18" rx="9" fill="#DCEB56"/>
  <rect x="930" y="222" width="170" height="14" rx="7" fill="#DCEB56"/>
  <rect x="930" y="252" width="246" height="14" rx="7" fill="#DCEB56"/>
  <rect x="930" y="282" width="194" height="14" rx="7" fill="#DCEB56"/>
  <rect x="930" y="312" width="120" height="14" rx="7" fill="#DCEB56"/>
  <circle cx="1038" cy="654" r="80" fill="#233024"/>
  <circle cx="1036" cy="628" r="36" fill="#E9C7A8"/>
  <path d="M966 766C986 706 1024 674 1072 674C1122 674 1158 710 1178 766" stroke="#233024" stroke-width="16" stroke-linecap="round"/>
</svg>
