<svg width="1400" height="980" viewBox="0 0 1400 980" fill="none" xmlns="http://www.w3.org/2000/svg">
  <rect width="1400" height="980" rx="64" fill="#101710"/>
  <circle cx="188" cy="188" r="108" fill="#DCEB56" fill-opacity="0.92"/>
  <rect x="102" y="112" width="1196" height="756" rx="46" fill="#0E140C"/>
  <rect x="154" y="170" width="432" height="640" rx="34" fill="#182118"/>
  <rect x="624" y="170" width="622" height="290" rx="30" fill="#FFFFFF"/>
  <rect x="624" y="492" width="622" height="318" rx="30" fill="#172016"/>
  <path d="M250 696V362H344V696" stroke="#DCEB56" stroke-width="24" stroke-linecap="round"/>
  <path d="M370 696V310H464V696" stroke="#DCEB56" stroke-width="24" stroke-linecap="round"/>
  <path d="M490 696V420H544V696" stroke="#DCEB56" stroke-width="24" stroke-linecap="round"/>
  <path d="M724 250H1142" stroke="#D1CBB9" stroke-width="16" stroke-linecap="round"/>
  <path d="M724 292H1102" stroke="#D1CBB9" stroke-width="16" stroke-linecap="round"/>
  <path d="M724 334H984" stroke="#DCEB56" stroke-width="16" stroke-linecap="round"/>
  <circle cx="1010" cy="652" r="82" fill="#233024"/>
  <circle cx="1006" cy="626" r="38" fill="#E6C39F"/>
  <path d="M930 768C954 704 992 672 1044 672C1098 672 1138 708 1162 768" stroke="#DCEB56" stroke-width="16" stroke-linecap="round"/>
  <rect x="734" y="740" width="158" height="38" rx="19" fill="#FFFFFF"/>
  <rect x="1168" y="584" width="28" height="160" rx="14" fill="#DCEB56"/>
  <rect x="1208" y="544" width="28" height="200" rx="14" fill="#DCEB56"/>
</svg>
